<?xml version="1.0" standalone="no"?>
<!DOCTYPE svg PUBLIC "-//W3C//DTD SVG 20010904//EN"
 "http://www.w3.org/TR/2001/REC-SVG-20010904/DTD/svg10.dtd">
<svg version="1.0" xmlns="http://www.w3.org/2000/svg"
 width="300.000000pt" height="300.000000pt" viewBox="0 0 300.000000 300.000000"
 preserveAspectRatio="xMidYMid meet">
<metadata>
Created by potrace 1.10, written by Peter Selinger 2001-2011
</metadata>
<g transform="translate(0.000000,300.000000) scale(0.100000,-0.100000)"
fill="#000000" stroke="none">
<path d="M1522 2497 c-15 -17 1 -42 23 -33 18 6 17 37 -1 43 -6 2 -16 -2 -22
-10z"/>
<path d="M1205 2438 c-59 -21 -115 -69 -146 -124 -21 -36 -37 -54 -50 -54 -57
0 -157 -78 -196 -153 -20 -39 -30 -175 -15 -204 9 -17 7 -24 -10 -39 -61 -55
-77 -184 -32 -270 21 -40 25 -62 24 -116 -1 -50 4 -77 21 -110 39 -79 108
-136 185 -152 25 -6 32 -14 41 -49 38 -141 223 -220 364 -155 68 31 104 75
121 146 l12 53 29 -48 c64 -104 79 -109 211 -68 90 28 116 47 116 85 0 15 3
41 6 58 l6 30 43 -15 c82 -27 102 -18 173 76 34 46 65 95 69 109 3 15 -3 54
-16 95 l-23 69 36 33 36 33 0 95 0 95 -41 40 -41 39 27 42 c23 34 26 46 18 64
-20 41 -146 187 -167 193 -11 3 -41 -2 -65 -11 -24 -8 -47 -15 -52 -15 -5 0
-9 22 -9 49 0 32 -6 56 -17 69 -23 27 -205 74 -238 62 -13 -5 -39 -37 -60 -76
l-38 -68 -12 45 c-16 64 -47 103 -107 133 -57 28 -145 34 -203 14z m166 -39
c46 -14 66 -34 112 -114 l35 -60 -20 -22 c-19 -20 -20 -31 -15 -125 5 -89 9
-105 27 -120 l21 -17 -27 -36 c-27 -36 -27 -36 -22 -168 7 -175 23 -205 126
-228 41 -10 63 -10 107 1 30 7 55 17 55 22 0 4 5 8 10 8 14 0 60 46 60 60 0 5
4 10 8 10 17 0 32 52 32 109 0 44 -7 71 -30 116 -17 32 -36 62 -43 67 -9 6 -8
8 3 8 8 0 26 -16 40 -34 14 -19 27 -32 30 -29 2 2 9 -20 15 -49 11 -58 1 -181
-15 -186 -5 -2 -10 -9 -10 -16 0 -18 -78 -89 -119 -109 -40 -20 -151 -23 -169
-5 -7 7 -12 9 -12 6 0 -4 -13 -3 -29 2 -43 12 -51 -3 -51 -96 0 -97 10 -130
44 -146 14 -6 37 -29 52 -52 l27 -41 -33 33 c-18 17 -41 32 -51 32 -21 0 -43
-31 -53 -72 -23 -100 -172 -155 -281 -103 -64 31 -103 67 -126 119 -29 64 -51
83 -116 101 -34 9 -103 82 -125 132 -16 36 -19 57 -13 98 5 44 2 58 -17 91
-19 32 -23 53 -23 120 0 72 3 84 27 116 30 39 34 67 23 139 -11 68 18 141 80
201 22 21 92 58 111 58 12 0 55 46 107 113 50 66 154 94 248 66z m427 -122 c7
-5 12 -29 12 -57 0 -47 2 -50 38 -68 33 -16 43 -17 73 -6 19 7 41 13 50 13 9
1 41 -31 72 -70 l57 -71 -20 -28 c-10 -15 -26 -33 -35 -40 -20 -17 -19 -49 3
-57 9 -4 34 -18 55 -31 l37 -25 0 -77 0 -78 -44 -28 -43 -27 30 -83 30 -83
-49 -72 c-27 -39 -54 -74 -61 -76 -7 -3 -35 2 -64 10 -47 14 -55 14 -85 -1
-30 -14 -34 -20 -34 -56 0 -76 -5 -81 -85 -105 -40 -11 -76 -21 -79 -21 -3 0
-24 27 -46 60 -31 45 -49 62 -71 67 l-29 6 0 107 0 108 33 -16 c48 -24 145
-28 208 -7 71 24 140 93 164 164 22 68 17 169 -13 227 -25 48 -90 110 -141
132 -54 23 -157 21 -209 -5 l-42 -20 0 112 0 113 35 6 c26 5 39 15 51 39 9 18
25 44 35 58 l18 26 68 -16 c37 -9 74 -20 81 -24z m307 -375 c-1 -1 -10 0 -19
4 -19 7 -21 25 -3 43 10 10 13 7 18 -16 3 -15 4 -29 4 -31z m-383 16 c73 -22
138 -117 138 -203 -1 -107 -114 -204 -223 -191 -28 3 -67 16 -88 30 l-38 25 0
150 -1 149 52 26 c57 28 100 32 160 14z m398 -293 c-7 -8 -10 -28 -8 -44 5
-36 -7 -32 -16 5 -5 18 -2 32 10 45 20 22 33 17 14 -6z m7 -205 c-28 -46 -86
-123 -101 -132 -15 -11 -66 -10 -66 1 0 4 10 7 23 5 28 -5 43 7 95 77 36 48
45 68 52 114 1 6 5 1 10 -10 5 -14 1 -31 -13 -55z m-192 -120 c4 -6 -5 -10
-21 -10 -15 0 -36 -7 -46 -17 -24 -22 -32 -13 -12 15 16 23 67 31 79 12z m-94
-127 c-10 -20 -134 -63 -181 -63 -19 0 -33 7 -40 21 -11 20 -11 20 18 5 27
-14 36 -14 87 -1 81 21 93 30 107 78 l13 42 3 -32 c2 -18 -1 -40 -7 -50z"/>
<path d="M1222 2377 c-54 -20 -103 -67 -129 -123 -24 -53 -25 -54 -69 -54 -38
0 -51 -6 -90 -42 -25 -23 -51 -53 -58 -67 -18 -35 -13 -154 8 -185 15 -24 13
-56 -5 -56 -13 0 -50 -42 -61 -70 -12 -30 -16 -130 -5 -130 4 0 7 -5 7 -11 0
-6 9 -24 21 -40 17 -24 21 -46 22 -112 2 -73 5 -86 30 -119 31 -40 98 -78 139
-78 32 0 54 -25 62 -70 13 -75 107 -150 188 -150 47 0 113 32 130 63 10 17 14
148 18 557 3 294 9 545 12 558 4 12 3 22 -2 22 -4 0 -6 8 -4 18 5 21 -33 65
-74 86 -36 19 -93 20 -140 3z m166 -60 l27 -27 0 -566 0 -566 -37 -34 c-34
-31 -44 -34 -96 -34 -49 0 -66 5 -99 29 -38 28 -73 82 -73 115 0 8 -9 30 -20
48 -17 28 -24 32 -54 30 -42 -4 -85 17 -120 58 -46 55 -53 124 -18 186 8 15 4
24 -24 49 -61 52 -64 143 -7 199 15 15 39 30 55 33 38 8 39 33 1 69 -28 27
-33 38 -33 78 0 26 6 61 14 79 29 68 113 115 175 97 28 -8 29 -7 35 33 9 57
40 102 89 132 35 22 51 25 100 22 47 -3 63 -9 85 -30z"/>
<path d="M1231 2293 c-18 -9 -44 -34 -58 -55 -22 -32 -25 -46 -21 -93 3 -31 1
-58 -4 -61 -5 -4 -20 4 -33 16 -48 45 -137 24 -170 -40 -20 -39 -2 -40 30 -1
34 40 77 47 126 19 37 -21 39 -21 59 -3 16 14 20 31 20 76 0 52 3 61 34 93 30
32 39 36 84 36 31 0 52 5 55 13 7 20 -81 20 -122 0z"/>
<path d="M1362 2198 c-9 -9 -12 -106 -12 -377 0 -200 2 -362 4 -360 3 2 7 165
10 362 3 259 8 362 16 372 15 18 -1 20 -18 3z"/>
<path d="M1165 2000 c-11 -4 -33 -22 -49 -39 -23 -24 -30 -42 -34 -86 -4 -51
-6 -55 -31 -55 -29 -1 -62 -24 -80 -59 -18 -33 -5 -38 20 -7 27 35 75 59 119
60 33 1 35 3 38 41 4 51 34 83 81 87 29 2 37 7 39 27 2 13 -2 28 -10 32 -16
11 -67 10 -93 -1z"/>
<path d="M1182 1898 c-7 -7 -12 -29 -12 -49 0 -47 -21 -69 -66 -69 -41 0 -70
-14 -102 -47 -22 -24 -22 -24 -1 -18 15 5 19 4 14 -5 -5 -9 -3 -9 11 -2 11 5
26 12 34 16 8 3 2 4 -15 1 -28 -5 -29 -4 -11 10 11 8 41 18 67 21 57 8 81 30
85 81 2 24 11 44 24 55 21 17 21 18 3 18 -10 0 -24 -5 -31 -12z"/>
<path d="M1069 1673 c-55 -34 -78 -112 -38 -133 24 -13 49 2 49 30 0 25 33 50
67 50 40 0 58 21 43 49 -14 26 -82 28 -121 4z"/>
<path d="M1113 1460 c-25 -10 -30 -39 -11 -58 7 -7 29 -12 49 -12 43 0 51 -9
59 -65 5 -40 30 -59 52 -37 14 14 14 88 -2 116 -25 48 -99 76 -147 56z m93
-45 c10 -14 24 -25 31 -25 7 0 11 -13 11 -30 -1 -16 -5 -30 -11 -30 -5 0 -7
12 -4 26 3 17 1 24 -8 20 -7 -2 -18 6 -25 19 -7 14 -17 22 -22 19 -4 -3 -8 0
-8 6 0 6 -4 9 -9 5 -5 -3 -12 -1 -16 5 -14 23 43 9 61 -15z"/>
<path d="M1564 2150 c-12 -4 -24 -16 -28 -25 -5 -13 -2 -15 16 -9 29 9 138 8
169 -1 23 -7 23 -7 4 9 -20 15 -20 15 5 16 23 1 23 2 5 10 -26 11 -144 11
-171 0z"/>
<path d="M1790 2142 c0 -7 21 -27 47 -45 26 -17 54 -39 63 -47 9 -8 32 -28 50
-45 23 -21 30 -24 22 -10 -13 26 -56 64 -112 100 -25 16 -51 36 -57 44 -9 10
-13 11 -13 3z"/>
<path d="M1561 2089 c-13 -5 -22 -12 -19 -14 8 -9 188 8 182 16 -7 12 -133 10
-163 -2z"/>
<path d="M1911 2005 c2 -5 16 -33 31 -60 42 -81 61 -158 56 -236 -3 -50 -1
-64 7 -51 5 9 10 53 9 97 0 65 -5 91 -26 135 -22 46 -88 145 -77 115z"/>
<path d="M1962 1575 c-7 -14 -33 -48 -58 -75 -26 -28 -44 -50 -40 -50 11 0
106 104 112 123 9 29 -1 30 -14 2z"/>
<path d="M1758 1844 c-4 -3 5 -22 18 -41 45 -67 31 -149 -34 -198 -20 -14 -43
-20 -83 -20 -46 0 -62 5 -93 29 -33 24 -36 26 -27 7 17 -32 70 -55 127 -55 41
0 59 5 89 28 38 29 65 78 65 118 0 12 -8 48 -17 80 -16 53 -29 68 -45 52z"/>
<path d="M1635 1801 c-50 -21 -69 -92 -37 -136 12 -16 13 -17 8 -2 -5 15 -2
16 14 7 33 -18 77 -12 94 12 20 28 20 51 1 89 -13 25 -20 28 -43 23 -21 -4
-24 -3 -12 5 18 12 4 13 -25 2z m50 -71 c0 -28 -27 -39 -50 -20 -21 18 -1 52
28 48 16 -2 22 -10 22 -28z"/>
<path d="M1987 2402 c-49 -49 -60 -82 -29 -82 26 0 116 95 109 114 -10 26 -30
18 -80 -32z m63 16 c0 -7 -18 -31 -40 -52 -32 -31 -43 -37 -52 -28 -10 10 -3
21 31 52 45 42 61 49 61 28z"/>
<path d="M873 2404 c-3 -9 3 -24 18 -37 21 -20 22 -20 6 -1 -22 27 -22 37 3
29 24 -7 27 10 4 19 -22 8 -24 8 -31 -10z"/>
<path d="M946 2367 c15 -24 15 -30 3 -38 -11 -7 -11 -9 3 -9 30 0 31 21 3 49
l-27 26 18 -28z"/>
<path d="M2114 2255 c-10 -25 4 -45 30 -45 25 0 44 30 31 50 -10 15 -55 12
-61 -5z"/>
<path d="M2208 2061 c66 -65 74 -87 41 -117 -21 -19 -44 -54 -35 -54 3 0 21
14 41 31 26 24 35 39 35 63 0 36 -16 54 -95 106 l-50 32 63 -61z"/>
<path d="M580 1935 c0 -24 5 -35 15 -35 8 0 15 5 15 10 0 6 11 10 25 10 16 0
25 6 25 15 0 9 -9 15 -25 15 -14 0 -25 5 -25 10 0 6 -7 10 -15 10 -10 0 -15
-11 -15 -35z"/>
<path d="M2260 1816 c34 -36 34 -38 32 -114 -4 -97 -6 -106 -48 -148 -19 -19
-33 -38 -31 -42 15 -25 47 -103 47 -114 0 -27 -61 -137 -87 -158 -23 -18 -36
-20 -70 -15 -26 4 -43 2 -43 -4 0 -15 88 -25 114 -13 27 12 96 131 103 179 4
26 -1 45 -25 83 l-31 49 35 21 c47 30 52 43 56 152 3 104 -2 117 -56 145 l-31
15 35 -36z"/>
<path d="M2347 1824 c-16 -16 -7 -44 14 -44 15 0 20 5 17 22 -3 22 -19 33 -31
22z"/>
<path d="M584 1759 c-8 -14 21 -43 35 -35 19 12 13 46 -8 46 -11 0 -23 -5 -27
-11z"/>
<path d="M587 1583 c-11 -10 -8 -41 4 -49 16 -9 43 21 36 40 -7 16 -28 21 -40
9z"/>
<path d="M605 1429 c-10 -30 18 -58 43 -43 9 6 17 22 17 35 0 34 -50 41 -60 8z"/>
<path d="M2334 1386 c-8 -21 3 -36 27 -36 15 0 20 6 17 22 -4 27 -35 37 -44
14z"/>
<path d="M2307 1253 c-4 -3 -7 -12 -7 -20 0 -15 26 -18 34 -4 7 11 -18 33 -27
24z"/>
<path d="M1988 1190 c-4 -14 -8 -38 -8 -53 0 -24 -7 -31 -47 -49 -70 -31 -133
-45 -175 -40 -48 5 -49 -4 -2 -17 29 -8 52 -5 122 15 111 32 124 44 120 115
-2 42 -5 48 -10 29z"/>
<path d="M807 1194 c-4 -4 -7 -16 -7 -26 0 -14 6 -19 23 -16 14 2 22 10 22 23
0 20 -25 32 -38 19z"/>
<path d="M902 1088 c-23 -24 -42 -48 -42 -55 0 -24 23 -25 44 -2 11 12 13 17
4 10 -10 -7 -23 -11 -30 -9 -8 3 0 18 24 42 21 21 42 35 48 31 6 -3 7 -12 4
-18 -5 -8 -2 -8 7 1 11 10 11 15 -2 28 -15 14 -20 11 -57 -28z"/>
<path d="M2121 1066 c-9 -11 -8 -18 5 -31 15 -15 19 -15 32 -1 17 17 10 46
-11 46 -8 0 -20 -6 -26 -14z"/>
<path d="M1594 1023 c-8 -14 -35 -21 -105 -29 l-94 -11 90 -2 c94 -1 135 12
135 45 0 19 -13 18 -26 -3z"/>
<path d="M1160 845 c-20 -25 -8 -50 25 -50 21 0 31 5 33 18 4 21 -14 47 -33
47 -7 0 -18 -7 -25 -15z"/>
<path d="M1353 844 c-3 -8 -3 -37 0 -65 l6 -49 -24 16 c-54 35 -108 -12 -109
-95 -1 -57 17 -94 52 -110 22 -10 30 -9 54 9 27 20 28 20 28 2 0 -14 7 -19 25
-19 l25 0 0 163 0 164 -25 0 c-14 0 -28 -7 -32 -16z m-1 -169 c23 -51 -20
-106 -57 -75 -15 13 -20 56 -9 84 10 26 53 20 66 -9z"/>
<path d="M510 835 c-3 -50 0 -287 4 -294 3 -4 17 -6 31 -3 23 4 25 9 25 53 0
44 2 49 23 49 17 0 27 -12 43 -49 19 -43 26 -49 58 -53 20 -2 36 -2 36 1 0 3
-12 29 -27 57 l-27 52 28 33 c24 28 27 39 23 73 -9 66 -41 86 -138 86 -43 0
-79 -2 -79 -5z m145 -95 c0 -34 -1 -35 -42 -38 l-43 -3 0 41 0 41 43 -3 c41
-3 42 -4 42 -38z"/>
<path d="M1422 688 l3 -153 25 0 c23 0 25 4 28 53 3 47 5 52 26 52 17 0 28
-11 46 -49 20 -43 27 -50 57 -53 18 -2 36 -2 38 0 3 3 -9 29 -25 58 l-31 52
26 26 c19 19 25 35 25 70 0 37 -5 48 -31 70 -27 23 -39 26 -110 26 l-80 0 3
-152z m152 70 c18 -29 -4 -53 -53 -56 l-41 -3 0 41 0 41 41 -3 c27 -2 46 -9
53 -20z"/>
<path d="M765 746 c-16 -12 -17 -16 -6 -30 10 -12 23 -14 51 -10 32 5 40 3 49
-15 11 -20 9 -21 -29 -21 -51 0 -78 -14 -90 -46 -22 -56 45 -113 94 -80 19 12
24 12 32 1 5 -8 19 -12 34 -9 25 5 25 6 20 94 -6 109 -20 130 -90 130 -25 0
-55 -6 -65 -14z m95 -130 c0 -31 -35 -45 -58 -23 -13 13 -13 19 -2 31 7 9 23
16 36 16 19 0 24 -5 24 -24z"/>
<path d="M950 755 c0 -3 -1 -74 -1 -157 l0 -153 28 0 28 0 -3 65 -4 65 22 -23
c25 -27 62 -24 94 8 20 20 32 94 22 135 -15 58 -78 84 -118 48 -17 -15 -18
-15 -18 0 0 11 -8 17 -25 17 -14 0 -25 -2 -25 -5z m132 -80 c29 -63 -38 -113
-71 -53 -12 21 -13 31 -3 52 16 35 58 36 74 1z"/>
<path d="M1160 758 c-1 -2 -2 -52 -2 -113 l-2 -110 27 -3 27 -3 0 115 0 116
-25 0 c-14 0 -25 -1 -25 -2z"/>
<path d="M1679 731 c-24 -25 -29 -38 -29 -79 0 -93 75 -144 155 -106 36 17 36
17 17 36 -16 17 -23 18 -41 8 -27 -14 -58 -5 -71 21 -10 18 -7 19 57 19 l68 0
20 -37 c27 -51 66 -69 116 -54 21 6 41 16 45 22 9 15 -27 52 -40 39 -14 -14
-49 -13 -64 2 -19 19 -14 73 9 94 17 15 23 16 40 6 17 -11 24 -10 45 7 l25 20
-30 15 c-45 24 -93 20 -125 -9 -14 -13 -26 -32 -26 -42 -1 -13 -6 -9 -17 12
-23 42 -42 54 -86 55 -29 0 -45 -7 -68 -29z m99 -33 c21 -21 13 -28 -33 -28
-43 0 -45 1 -35 20 12 22 49 27 68 8z"/>
<path d="M2063 748 c-20 -10 -21 -12 -7 -33 13 -20 18 -22 45 -12 21 8 34 8
46 1 34 -21 26 -34 -22 -34 -35 0 -51 -6 -70 -25 -28 -27 -29 -33 -15 -70 13
-36 54 -49 91 -31 16 8 29 10 29 5 0 -5 15 -9 33 -9 l32 0 -5 91 c-4 80 -8 93
-29 110 -26 21 -91 25 -128 7z m97 -132 c0 -31 -35 -45 -58 -23 -13 13 -13 19
-2 31 7 9 23 16 36 16 19 0 24 -5 24 -24z"/>
<path d="M2250 599 l0 -160 28 3 c26 3 27 4 25 65 l-1 62 27 -20 c74 -54 154
68 106 161 -27 53 -80 65 -115 28 l-20 -22 0 22 c0 17 -6 22 -25 22 l-25 0 0
-161z m129 87 c17 -20 10 -77 -11 -90 -26 -16 -52 4 -56 43 -4 36 12 61 38 61
10 0 23 -6 29 -14z"/>
</g>
</svg>
